<svg xmlns="http://www.w3.org/2000/svg" viewBox="0 0 480 480"><title>logo-pixelpsi</title><g id="Logo"><path d="M454.6,0H25.4A25.4,25.4,0,0,0,0,25.4V454.7A25.4,25.4,0,0,0,25.4,480H454.6A25.4,25.4,0,0,0,480,454.7V25.4A25.4,25.4,0,0,0,454.6,0Zm-240,233.9c-32.2-3.4-60.1-13.5-83.1-30.1s-41.8-40.3-55.6-70-20.5-62-23.1-83H214.6ZM265.4,50.8H427.2c-2.6,21-8.8,52.2-23.1,83s-32.5,53.3-55.6,70-50.9,26.7-83.1,30.1ZM50.7,192A214.2,214.2,0,0,0,101,244.3c31.8,23.2,69.9,36.8,113.6,40.5V429.3H50.7ZM265.4,429.3V284.8c43.7-3.7,81.8-17.3,113.6-40.5A214.2,214.2,0,0,0,429.3,192V429.3Z"/></g></svg>